<svg viewBox="0 0 200 200" xmlns="http://www.w3.org/2000/svg">
  <path fill="#90C2E7" d="M42.3,-72.4C52.4,-67.4,56.6,-51.2,61.9,-37.3C67.3,-23.4,73.9,-11.7,76.5,1.5C79.2,14.7,77.9,29.5,69.8,38.8C61.8,48.1,47,51.9,34.2,59.7C21.5,67.5,10.7,79.2,-1.2,81.2C-13.2,83.3,-26.3,75.8,-37.6,67.2C-48.9,58.6,-58.4,48.9,-66.4,37.5C-74.4,26.1,-81,13.1,-80.7,0.2C-80.4,-12.7,-73.2,-25.4,-66.6,-39.3C-60,-53.1,-54,-68.1,-43,-72.6C-32,-77.2,-16,-71.2,0,-71.3C16.1,-71.4,32.2,-77.5,42.3,-72.4Z" transform="translate(100 100)" />
</svg>