<svg xmlns="http://www.w3.org/2000/svg" viewBox="0 0 1440 320"><path fill="#1a2d83" fill-opacity="1" d="M0,160L30,170.7C60,181,120,203,180,186.7C240,171,300,117,360,101.3C420,85,480,107,540,128C600,149,660,171,720,149.3C780,128,840,64,900,64C960,64,1020,128,1080,154.7C1140,181,1200,171,1260,186.7C1320,203,1380,245,1410,266.7L1440,288L1440,320L1410,320C1380,320,1320,320,1260,320C1200,320,1140,320,1080,320C1020,320,960,320,900,320C840,320,780,320,720,320C660,320,600,320,540,320C480,320,420,320,360,320C300,320,240,320,180,320C120,320,60,320,30,320L0,320Z"></path></svg>